<svg id="Layer_1" data-name="Layer 1" xmlns="http://www.w3.org/2000/svg" viewBox="0 0 157 42.35"><defs><style>.cls-1{fill:#fafafa;}.cls-2{fill:#0a0e17;}</style></defs><title>name-logo-157Artboard 42</title><polygon class="cls-1" points="4.79 21.06 4.79 0 34.6 0 34.61 14.98 16.84 14.98 16.84 21.06 4.79 21.06"/><polygon class="cls-1" points="47.1 21.06 42.47 16.82 37.11 21.06 20.48 21.06 47.18 0 59.85 0 59.85 21.06 47.1 21.06"/><path class="cls-2" d="M27.75,18.54l20.3-16h9.28v16H48.08l-4.26-3.9h6.59V7.33L36.24,18.54Z"/><polygon class="cls-1" points="76.6 21.06 69.36 16.33 69.36 21.06 57.37 21.06 57.37 0 87 0 87 15.41 85.6 15.41 94.09 21.06 76.6 21.06"/><path class="cls-1" d="M113.54,17.1l-4.33,4H94.07V0h12.41L117.1,7.11V0h12V27.4Zm-7.5-5h0Z"/><path class="cls-2" d="M126.54,22.71l-23-15.29v7.22h9l-4.26,3.9H96.59v-16h9.13l13.9,9.31V2.52h6.92Z"/><polygon class="cls-1" points="135.43 21.06 128.79 14.98 126.58 14.98 126.58 0 138.54 0 138.54 5.98 145.04 5.98 145.04 0 157 0 157 21.06 135.43 21.06"/><path class="cls-2" d="M136.41,18.54l-4.26-3.9h15.41V12.46H129.1V2.52H136v6h11.54v-6h6.92v16Z"/><polygon class="cls-1" points="11.22 39.62 0 30.63 4.79 30.63 4.79 18.57 29.68 18.57 40.98 27.57 36.06 27.57 36.06 39.62 11.22 39.62"/><polygon class="cls-1" points="54.69 39.62 50.06 35.39 44.7 39.62 28.07 39.62 54.77 18.57 67.44 18.57 67.44 39.62 54.69 39.62"/><path class="cls-2" d="M35.33,37.1l20.31-16h9.28v16H55.67l-4.26-3.89H58V25.89L43.83,37.1Z"/><rect class="cls-1" x="64.96" y="18.57" width="29.64" height="21.06"/><path class="cls-2" d="M67.48,21.09H92.07V28L90.5,29.07l1.57,1.12V37.1H67.48ZM85.15,31H76.3V27.19h8.85V25H74.43v8.16H85.15Z"/><polygon class="cls-1" points="98.63 42.35 98.64 27.54 92.11 27.54 92.11 18.57 121.93 18.57 121.93 27.54 111.65 27.54 111.65 30.81 126.03 30.81 106.34 42.35 98.63 42.35"/><path class="cls-2" d="M101.31,39.83V25H94.63V21.09h24.78V25H109.13v8.31h7.53s-11.5,6.5-11.52,6.5Z"/><polygon class="cls-1" points="119.44 39.62 119.44 18.57 131.43 18.57 131.43 30.63 137.12 30.63 137.12 18.57 149.08 18.57 149.08 39.62 119.44 39.62"/><path class="cls-2" d="M139.64,21.09h6.92v16H122v-16h7V33.15h10.73Z"/><path class="cls-2" d="M7.31,2.52H32.09V6.45H14.32V8.5H32v4H14.32v6.08h-7Z"/><path class="cls-2" d="M7.31,21.09H28l5.31,4h-19V27.1H33.54v10H12.9l-5.32-4h19V31H7.31Z"/><polygon class="cls-1" points="84.49 19.97 84.49 0 96.57 0 96.57 27.13 84.49 19.97"/><path class="cls-2" d="M94.05,22.71l-7-4.17v-16h7Z"/><path class="cls-2" d="M59.89,18.54v-16H84.48V12.89H77.26l8.49,5.65h-8.4l-8.67-5.65v-4h8.88V6.45H66.84V18.54Z"/></svg>